<svg xmlns="http://www.w3.org/2000/svg" viewBox="0 0 143.67 143.67"><title>cds-logo-fr-en-short-rev</title><rect width="143.67" height="143.67" style="fill:#fff"/><path d="M.17.17V143.83H143.83V.17ZM137,137.87H7V7.82H137Z" transform="translate(-0.17 -0.17)" style="fill:#020202"/><path d="M112.88,44.71s-.25-4.57-.25-5.08.41-.53.87-.37,4.71.88,4.71.87-.31-.92-.62-1.61c-.15-.65.15-.75.25-.87s4.81-4.17,4.83-4.21l-.74-.37c-.46-.21-.41-.57-.37-.87s.89-2.9.87-2.85-2,.41-2.48.5-.49-.13-.62-.37-.55-1.41-.5-1.36-2.53,2.63-2.6,2.72c-.45.37-.91.06-.74-.5,0-.42,1.18-5.79,1.24-5.82s-1.35.81-1.73,1.11-.7.16-.87-.25-1.9-3.62-1.86-3.59-1.59,3.17-1.86,3.59-.46.45-.87.25-1.71-1.08-1.73-1.11,1.16,5.4,1.24,5.82-.33.87-.74.5c-.1-.09-2.58-2.78-2.6-2.72s-.44,1.08-.49,1.36-.31.44-.62.37c-.52-.08-2.58-.55-2.6-.5s.85,2.63.87,2.85.19.66-.25.87l-.74.37s4.58,4,4.71,4.21.5.22.25.87-.53,1.62-.5,1.61,4.25-.82,4.71-.87.84,0,.87.37-.24,5.1-.25,5.08Z" transform="translate(-0.17 -0.17)" style="fill:#020202"/><path d="M85.35,116.82l-3.67-1.55-.18.46a5.4,5.4,0,0,1-5.57,3.84c-5.72,0-6.34-5.31-6.34-7.59,0-4.63,2.35-7.39,6.28-7.39,2.06,0,4.71.65,5.57,3.75l.14.52,3.72-1.55-.18-.44A9.35,9.35,0,0,0,76,100.79c-7.59,0-10.29,5.83-10.29,11.29A12.33,12.33,0,0,0,68.15,120a10.28,10.28,0,0,0,17-2.7Z" transform="translate(-0.17 -0.17)" style="fill:#020202"/><path d="M94.36,101.13H88.2v21.93h6.13c7.14,0,11.24-3.94,11.24-10.81C105.57,105.08,101.59,101.13,94.36,101.13Zm7.25,11c0,6-4.15,7.26-7.63,7.26H92.16V104.83H94.3C99.36,104.83,101.61,107.06,101.61,112.09Z" transform="translate(-0.17 -0.17)" style="fill:#020202"/><path d="M115.15,119.66c-2.43,0-4-1.32-4.25-3.54l-.06-.55-3.88,1,.07.42c.71,4.33,4.57,6.27,8.09,6.27,4.34,0,7.37-2.74,7.37-6.65,0-4.13-3.3-5.52-6.21-6.75-2.1-.88-3.92-1.65-3.92-3.26a2.34,2.34,0,0,1,2.55-2.21,3.68,3.68,0,0,1,3.34,2.07l.24.46,3.23-2.05-.23-.39a7.12,7.12,0,0,0-6.5-3.7c-3.8,0-6.56,2.53-6.56,6,0,3.85,3.14,5.17,5.92,6.33,2.26,1,4.22,1.77,4.22,3.73C118.57,118.63,117.29,119.66,115.15,119.66Z" transform="translate(-0.17 -0.17)" style="fill:#020202"/><path d="M74.31,78.64c-2.1-.88-3.92-1.65-3.92-3.26A2.33,2.33,0,0,1,73,73.17a3.67,3.67,0,0,1,3.33,2.08l.24.46,3.23-2.05-.23-.39a7.12,7.12,0,0,0-6.5-3.7c-3.8,0-6.56,2.53-6.56,6,0,3.85,3.14,5.17,5.92,6.33,2.27,1,4.22,1.77,4.22,3.73,0,1.73-1.28,2.76-3.41,2.76-2.43,0-4-1.32-4.25-3.54l-.06-.56-3.88,1,.07.42c.71,4.33,4.57,6.26,8.09,6.26,4.34,0,7.37-2.74,7.37-6.65C80.52,81.26,77.22,79.87,74.31,78.64Z" transform="translate(-0.17 -0.17)" style="fill:#020202"/><polygon points="96.04 84.99 88.01 69.96 87.87 69.71 83.55 69.71 83.55 91.64 87.44 91.64 87.44 76.34 95.42 91.39 95.56 91.64 99.93 91.64 99.93 69.71 96.04 69.71 96.04 84.99" style="fill:#020202"/><path d="M119.66,84l-.18.46a5.4,5.4,0,0,1-5.57,3.84c-5.72,0-6.34-5.31-6.34-7.59,0-4.63,2.35-7.39,6.28-7.39,2.06,0,4.71.65,5.57,3.75l.14.52,3.72-1.54-.18-.44a9.35,9.35,0,0,0-9.19-6.09c-7.59,0-10.29,5.83-10.29,11.29a12.32,12.32,0,0,0,2.49,7.89,10.28,10.28,0,0,0,17-2.7l.19-.44Z" transform="translate(-0.17 -0.17)" style="fill:#020202"/></svg>