<svg xmlns="http://www.w3.org/2000/svg" viewBox="0 0 144.63 144.27"><title>cds-logo-fr-full-rev</title><rect width="144.63" height="144.27" style="fill:#fff"/><path d="M-.63,0V144.27H144V0ZM137.14,138.28H6.23V7.69H137.14Z" transform="translate(0.63)" style="fill:#020202"/><path d="M112.56,44.73s-.25-4.59-.25-5.1.41-.53.87-.37,4.73.88,4.73.87-.31-.92-.62-1.62c-.16-.65.15-.76.25-.87s4.83-4.19,4.85-4.23l-.75-.37c-.47-.21-.41-.57-.37-.87s.89-2.91.87-2.86-2,.41-2.49.5-.5-.13-.62-.37-.55-1.42-.5-1.37-2.54,2.64-2.61,2.73c-.45.37-.91.06-.75-.5,0-.42,1.18-5.81,1.24-5.85s-1.36.81-1.74,1.12-.7.16-.87-.25-1.91-3.64-1.87-3.61-1.6,3.18-1.86,3.61-.46.46-.87.25-1.71-1.09-1.74-1.12,1.17,5.42,1.24,5.85-.33.87-.75.5c-.1-.09-2.59-2.79-2.61-2.73s-.45,1.09-.5,1.37-.31.45-.62.37c-.52-.08-2.59-.55-2.61-.5s.85,2.64.87,2.86.18.66-.25.87l-.75.37s4.6,4,4.73,4.23.5.22.25.87-.53,1.63-.5,1.62,4.27-.82,4.73-.87.84,0,.87.37-.24,5.12-.25,5.1Z" transform="translate(0.63)" style="fill:#020202"/><path d="M60.35,76.57a5.82,5.82,0,0,0,3.32,1A5.19,5.19,0,0,0,67,76.47a3.77,3.77,0,0,0,1.38-3c0-2.56-2.1-3.37-4-4.08-1.37-.53-2.56-1-2.56-2.06a1.51,1.51,0,0,1,1.67-1.42,2.41,2.41,0,0,1,2.15,1.43v0l2-1.24h0v0a4.54,4.54,0,0,0-4.12-2.37,4.65,4.65,0,0,0-3,1,3.46,3.46,0,0,0-1.26,2.77c0,2.45,2,3.25,3.82,4,1.45.57,2.7,1.06,2.7,2.29,0,1-.86,1.69-2.2,1.69A2.55,2.55,0,0,1,60.94,73v0l-2.42.62h0v0A4.42,4.42,0,0,0,60.35,76.57Z" transform="translate(0.63)" style="fill:#020202"/><path d="M74.46,77.59a5,5,0,0,0,3.92-1.72v0l-1.62-1.41h0v0a2.86,2.86,0,0,1-2.27,1,2.18,2.18,0,0,1-2.36-2h6.53a3.79,3.79,0,0,0,.09-.92c0-2.22-1.16-4.82-4.43-4.82s-4.69,2.52-4.69,5a5.18,5.18,0,0,0,1.19,3.43A4.69,4.69,0,0,0,74.46,77.59Zm-.17-8a2,2,0,0,1,2.12,2H72.12C72.38,70.31,73.09,69.64,74.29,69.64Z" transform="translate(0.63)" style="fill:#020202"/><path d="M83.12,73.36a4.34,4.34,0,0,1,.7-2.61,1.87,1.87,0,0,1,1.5-.8,1.83,1.83,0,0,1,1,.32h0l1.07-1.93h0a2.46,2.46,0,0,0-1.76-.69,2.73,2.73,0,0,0-2.53,1.71V67.85H80.83V77.4h2.29Z" transform="translate(0.63)" style="fill:#020202"/><polygon points="92.24 77.4 94.18 77.4 98.08 67.87 98.09 67.84 95.52 67.84 93.22 74.32 90.93 67.86 90.92 67.84 88.34 67.84 92.23 77.39 92.24 77.4" style="fill:#020202"/><rect x="99.52" y="67.85" width="2.35" height="9.56" style="fill:#020202"/><rect x="99.47" y="63.9" width="2.46" height="2.19" style="fill:#020202"/><path d="M107.93,67.64a4.32,4.32,0,0,0-3.48,1.56,5.43,5.43,0,0,0-1.14,3.44,5.34,5.34,0,0,0,1.15,3.43A4.37,4.37,0,0,0,108,77.59a4.12,4.12,0,0,0,4-2.83v0l-2.13-.81h0v0a2,2,0,0,1-1.88,1.5c-2,0-2.21-2.15-2.21-2.81,0-1.31.58-2.85,2.21-2.85a1.94,1.94,0,0,1,1.88,1.55v0l2.23-.87h0v0A4.18,4.18,0,0,0,107.93,67.64Z" transform="translate(0.63)" style="fill:#020202"/><path d="M117.9,77.59a5,5,0,0,0,3.92-1.72v0l-1.62-1.41h0v0a2.86,2.86,0,0,1-2.27,1,2.18,2.18,0,0,1-2.36-2h6.53a3.79,3.79,0,0,0,.09-.92c0-2.22-1.16-4.82-4.43-4.82s-4.69,2.52-4.69,5a5.18,5.18,0,0,0,1.19,3.43A4.69,4.69,0,0,0,117.9,77.59Zm-.17-8a2,2,0,0,1,2.12,2h-4.29C115.83,70.31,116.53,69.64,117.73,69.64Z" transform="translate(0.63)" style="fill:#020202"/><path d="M37,91.06a3.68,3.68,0,0,0-2.79,1.27V91.26H31.82v9.56h2.35V95.58c0-1.53.73-2.34,2.12-2.34,1.11,0,1.8.82,1.8,2.13v5.44h2.34V95.08C40.42,93.13,39.51,91.06,37,91.06Z" transform="translate(0.63)" style="fill:#020202"/><path d="M48.69,99.74v1.07h2.4V91.26h-2.4v4.31c0,2.22-.71,3.29-2.18,3.29s-1.7-1-1.7-2.49V91.26H42.42v5a6,6,0,0,0,.84,3.44A3,3,0,0,0,45.9,101,3.42,3.42,0,0,0,48.69,99.74Z" transform="translate(0.63)" style="fill:#020202"/><path d="M67.64,100.82V95.08a4.55,4.55,0,0,0-.85-2.77,3.25,3.25,0,0,0-2.69-1.25,3.62,3.62,0,0,0-3.15,1.66,3,3,0,0,0-5.08-.51v-.95H53.49v9.56h2.39V95.57a2.07,2.07,0,0,1,2-2.3c1,0,1.48.68,1.48,2.08v5.48h2.4V95.57a2.06,2.06,0,0,1,2-2.3c1,0,1.51.69,1.51,2.11v5.44Z" transform="translate(0.63)" style="fill:#020202"/><polygon points="73.43 90.11 75.18 90.11 78.11 87.35 78.15 87.31 75.61 87.31 73.46 90.08 73.43 90.11" style="fill:#020202"/><path d="M74.31,101a5,5,0,0,0,3.92-1.72v0l-1.62-1.41h0v0a2.86,2.86,0,0,1-2.27,1,2.18,2.18,0,0,1-2.36-2H78.5a3.79,3.79,0,0,0,.09-.92c0-2.22-1.16-4.82-4.43-4.82s-4.69,2.52-4.69,5a5.18,5.18,0,0,0,1.19,3.43A4.68,4.68,0,0,0,74.31,101Zm-.17-8a2,2,0,0,1,2.12,2H72C72.23,93.72,72.94,93.05,74.14,93.05Z" transform="translate(0.63)" style="fill:#020202"/><path d="M85,91.06a2.74,2.74,0,0,0-2.53,1.71V91.26H80.16v9.56h2.29v-4a4.34,4.34,0,0,1,.7-2.61,1.87,1.87,0,0,1,1.5-.8,1.82,1.82,0,0,1,1,.32h0l1.07-1.92h0A2.46,2.46,0,0,0,85,91.06Z" transform="translate(0.63)" style="fill:#020202"/><rect x="88.22" y="91.26" width="2.35" height="9.56" style="fill:#020202"/><rect x="88.16" y="87.31" width="2.46" height="2.19" style="fill:#020202"/><path d="M100.72,105V91.26H98.34v.92a3.45,3.45,0,0,0-2.68-1.11,3.7,3.7,0,0,0-3,1.5,6.25,6.25,0,0,0,0,7A3.75,3.75,0,0,0,95.69,101a3.36,3.36,0,0,0,2.65-1.11V105Zm-2.19-9c0,1.77-.83,2.79-2.28,2.79S94,97.8,94,96s.86-2.83,2.3-2.83S98.54,94.26,98.54,96Z" transform="translate(0.63)" style="fill:#020202"/><path d="M109.12,95.57c0,2.22-.71,3.29-2.18,3.29s-1.7-1-1.7-2.49V91.26h-2.39v5a6,6,0,0,0,.84,3.44,3,3,0,0,0,2.65,1.28,3.42,3.42,0,0,0,2.79-1.27v1.07h2.41V91.26h-2.41Z" transform="translate(0.63)" style="fill:#020202"/><path d="M117.75,91.06c-3.24,0-4.69,2.52-4.69,5a5.18,5.18,0,0,0,1.19,3.43,4.68,4.68,0,0,0,3.66,1.5,5,5,0,0,0,3.92-1.72v0l-1.62-1.41h0v0a2.86,2.86,0,0,1-2.27,1,2.18,2.18,0,0,1-2.36-2h6.53a3.79,3.79,0,0,0,.09-.92C122.18,93.66,121,91.06,117.75,91.06Zm0,2a2,2,0,0,1,2.12,2h-4.29C115.83,93.72,116.53,93.05,117.73,93.05Z" transform="translate(0.63)" style="fill:#020202"/><path d="M51.95,114.47A4.32,4.32,0,0,0,48.47,116a5.43,5.43,0,0,0-1.14,3.44,5.34,5.34,0,0,0,1.15,3.43A4.37,4.37,0,0,0,52,124.42a4.12,4.12,0,0,0,4-2.83v0l-2.13-.81h0v0a2,2,0,0,1-1.88,1.5c-2,0-2.21-2.15-2.21-2.81,0-1.31.58-2.85,2.21-2.85a1.94,1.94,0,0,1,1.88,1.55v0l2.23-.87h0v0A4.18,4.18,0,0,0,51.95,114.47Z" transform="translate(0.63)" style="fill:#020202"/><path d="M60.94,114.47a4.66,4.66,0,0,0-4,2.09v0l1.8,1.3h0v0A2.55,2.55,0,0,1,61,116.54a1.77,1.77,0,0,1,1.86,2H60.36a5.1,5.1,0,0,0-2.71.6,2.39,2.39,0,0,0-1.1,2.17,2.94,2.94,0,0,0,1,2.32,3.74,3.74,0,0,0,2.48.82A3.35,3.35,0,0,0,63,122.9l.15,1.32h2v-5.79A3.8,3.8,0,0,0,60.94,114.47Zm1.87,5.76a2.43,2.43,0,0,1-2.46,2.19c-.86,0-1.39-.4-1.39-1.06s.4-1.13,1.52-1.13Z" transform="translate(0.63)" style="fill:#020202"/><path d="M72.32,114.47a3.68,3.68,0,0,0-2.79,1.27v-1.07H67.18v9.56h2.35V119c0-1.53.73-2.34,2.12-2.34,1.11,0,1.8.82,1.8,2.13v5.44h2.34v-5.74C75.79,116.55,74.88,114.47,72.32,114.47Z" transform="translate(0.63)" style="fill:#020202"/><path d="M81.45,114.47a4.66,4.66,0,0,0-4,2.09v0l1.8,1.3h0v0a2.55,2.55,0,0,1,2.22-1.33,1.77,1.77,0,0,1,1.86,2H80.87a5.1,5.1,0,0,0-2.71.6,2.39,2.39,0,0,0-1.11,2.17,2.94,2.94,0,0,0,1,2.32,3.75,3.75,0,0,0,2.48.82,3.35,3.35,0,0,0,2.95-1.52l.15,1.32h2v-5.79A3.8,3.8,0,0,0,81.45,114.47Zm1.87,5.76a2.43,2.43,0,0,1-2.45,2.19c-.86,0-1.39-.4-1.39-1.06s.4-1.13,1.52-1.13Z" transform="translate(0.63)" style="fill:#020202"/><path d="M93.64,115.58A3.45,3.45,0,0,0,91,114.47a3.7,3.7,0,0,0-3.05,1.5,6.24,6.24,0,0,0,0,7A3.75,3.75,0,0,0,91,124.42a3.34,3.34,0,0,0,2.75-1.22l.1,1v0H96v-13.5H93.64Zm-2.08,1c1.43,0,2.29,1.06,2.29,2.83s-.83,2.83-2.29,2.83-2.3-1.06-2.3-2.83S90.11,116.62,91.56,116.62Z" transform="translate(0.63)" style="fill:#020202"/><rect x="99.08" y="114.67" width="2.35" height="9.56" style="fill:#020202"/><rect x="99.03" y="110.73" width="2.46" height="2.19" style="fill:#020202"/><path d="M107,114.47c-3.24,0-4.69,2.52-4.69,5a5.18,5.18,0,0,0,1.19,3.43,4.68,4.68,0,0,0,3.66,1.5,5,5,0,0,0,3.92-1.72v0l-1.62-1.42h0v0a2.86,2.86,0,0,1-2.27,1,2.18,2.18,0,0,1-2.36-2h6.53a3.79,3.79,0,0,0,.09-.92C111.45,117.07,110.29,114.47,107,114.47Zm0,2a2,2,0,0,1,2.12,2h-4.29C105.1,117.13,105.81,116.46,107,116.46Z" transform="translate(0.63)" style="fill:#020202"/><path d="M118.16,114.47a3.68,3.68,0,0,0-2.79,1.27v-1.07H113v9.56h2.35V119c0-1.53.73-2.34,2.12-2.34,1.11,0,1.8.82,1.8,2.13v5.44h2.34v-5.74C121.63,116.55,120.72,114.47,118.16,114.47Z" transform="translate(0.63)" style="fill:#020202"/></svg>