<svg xmlns="http://www.w3.org/2000/svg" viewBox="0 0 144 144"><title>cds-logo-en-fr-short</title><rect width="144" height="144" style="fill:#231f20"/><path d="M0,0V144H144V0ZM137.17,137.17H6.83V6.83H137.17Z" style="fill:#fff"/><path d="M114.24,43.8s-.25-4.58-.25-5.09.41-.53.87-.37,4.72.88,4.72.87-.31-.92-.62-1.61c-.16-.65.16-.76.25-.87s4.82-4.18,4.84-4.22l-.75-.37c-.46-.21-.41-.57-.37-.87s.89-2.91.87-2.85-2,.41-2.48.5-.5-.13-.62-.37-.55-1.42-.5-1.36-2.53,2.64-2.61,2.73c-.45.37-.91.06-.75-.5,0-.42,1.18-5.8,1.24-5.84s-1.36.81-1.74,1.12-.7.16-.87-.25-1.9-3.63-1.86-3.6S112,24,111.76,24.43s-.46.45-.87.25-1.71-1.09-1.74-1.12,1.17,5.41,1.24,5.84-.33.87-.75.5c-.1-.09-2.59-2.78-2.61-2.73s-.45,1.08-.5,1.36-.31.45-.62.37c-.52-.08-2.58-.55-2.61-.5s.85,2.64.87,2.85.18.66-.25.87l-.75.37s4.59,4,4.72,4.22.5.22.25.87-.53,1.62-.5,1.61,4.26-.82,4.72-.87.84,0,.87.37S113,43.82,113,43.8Z" style="fill:#fff"/><path d="M87,85,83.3,83.43l-.18.46a5.41,5.41,0,0,1-5.58,3.85c-5.74,0-6.35-5.32-6.35-7.61,0-4.64,2.35-7.41,6.29-7.41,2.07,0,4.72.65,5.58,3.76l.14.52,3.73-1.55L86.77,75a9.37,9.37,0,0,0-9.21-6.1c-7.61,0-10.31,5.84-10.31,11.31a12.37,12.37,0,0,0,2.49,7.91,10.3,10.3,0,0,0,17.06-2.71Z" style="fill:#fff"/><path d="M96,69.25H89.84v22H96c7.16,0,11.27-3.95,11.27-10.83C107.25,73.21,103.26,69.25,96,69.25Zm7.26,11c0,6-4.16,7.28-7.65,7.28H93.81V73H96C101,73,103.28,75.2,103.28,80.23Z" style="fill:#fff"/><path d="M116.85,87.82c-2.44,0-4-1.33-4.26-3.55l-.06-.56-3.89,1,.07.42c.71,4.34,4.58,6.28,8.11,6.28,4.35,0,7.38-2.74,7.38-6.67,0-4.14-3.31-5.54-6.23-6.76-2.11-.89-3.92-1.65-3.92-3.27a2.34,2.34,0,0,1,2.56-2.22A3.68,3.68,0,0,1,120,74.63l.24.46L123.43,73l-.23-.39a7.13,7.13,0,0,0-6.51-3.71c-3.81,0-6.58,2.54-6.58,6,0,3.86,3.15,5.18,5.93,6.35,2.27,1,4.23,1.77,4.23,3.74C120.27,86.79,119,87.82,116.85,87.82Z" style="fill:#fff"/><path d="M75.92,110.21c-2.11-.89-3.92-1.65-3.92-3.27a2.34,2.34,0,0,1,2.56-2.22,3.68,3.68,0,0,1,3.34,2.08l.24.46,3.23-2.06-.23-.4a7.14,7.14,0,0,0-6.52-3.71c-3.81,0-6.58,2.54-6.58,6,0,3.86,3.15,5.18,5.93,6.35,2.27,1,4.23,1.77,4.23,3.74,0,1.73-1.28,2.77-3.42,2.77-2.44,0-4-1.33-4.26-3.55l-.06-.56-3.89,1,.07.42c.71,4.34,4.58,6.28,8.1,6.28,4.35,0,7.38-2.74,7.38-6.67C82.14,112.83,78.83,111.44,75.92,110.21Z" style="fill:#fff"/><polygon points="97.86 116.74 89.81 101.67 89.67 101.42 85.34 101.42 85.34 123.41 89.24 123.41 89.24 108.07 97.24 123.15 97.38 123.41 101.76 123.41 101.76 101.42 97.86 101.42 97.86 116.74" style="fill:#fff"/><path d="M121.37,115.6l-.18.46a5.41,5.41,0,0,1-5.58,3.85c-5.74,0-6.35-5.32-6.35-7.6,0-4.64,2.35-7.41,6.29-7.41,2.07,0,4.72.65,5.58,3.76l.14.52,3.73-1.55-.18-.44a9.37,9.37,0,0,0-9.21-6.1c-7.6,0-10.31,5.84-10.31,11.31a12.36,12.36,0,0,0,2.49,7.91,10.3,10.3,0,0,0,17.05-2.71l.19-.44Z" style="fill:#fff"/></svg>